PathFileType	4	(X/Y/Z)	32_1_2_p0_0-351.trc
DataRate	CameraRate	NumFrames	NumMarkers	Units	OrigDataRate	OrigDataStartFrame	OrigNumFrames
59.0	59.0	5	27	m	59.0	132	352
Frame#	Time	RHip			RKnee			RAnkle			RBigToe			RSmallToe			RHeel			LHip			LKnee			LAnkle			LBigToe			LSmallToe			LHeel			Neck			Head			Nose			RShoulder			RElbow			RWrist			RThumb			RIndex			RPinky			LShoulder			LElbow			LWrist			LThumb			LIndex			LPinky			
		X1	Y1	Z1	X2	Y2	Z2	X3	Y3	Z3	X4	Y4	Z4	X5	Y5	Z5	X6	Y6	Z6	X7	Y7	Z7	X8	Y8	Z8	X9	Y9	Z9	X10	Y10	Z10	X11	Y11	Z11	X12	Y12	Z12	X13	Y13	Z13	X14	Y14	Z14	X15	Y15	Z15	X16	Y16	Z16	X17	Y17	Z17	X18	Y18	Z18	X19	Y19	Z19	X20	Y20	Z20	X21	Y21	Z21	X22	Y22	Z22	X23	Y23	Z23	X24	Y24	Z24	X25	Y25	Z25	X26	Y26	Z26	X27	Y27	Z27	
132	2.23728813559322	0.34267042542354903	0.4193953793259875	1.056622703979681	0.33018595525180255	0.45741190876615423	1.4879650990018063	0.31776245453300955	0.46725855202266703	1.8968497898846457	0.3163707684417372	0.32805085515246046	1.914483088540486	0.3778892166440663	0.34565985037634495	1.9179796999326988	0.28746148395205745	0.5409006717142344	1.988534169631839	0.15021319973612962	0.4442700452707059	1.0703081635622893	0.13790181676857977	0.4874629388096586	1.51234985493097	0.14602725448343234	0.49623900601139803	1.9417642414948526	0.14930452257893276	0.3337887084198394	1.9236663462602013	0.10749295534633954	0.36811751789663316	1.9314798595329403	0.1547346947945006	0.5276650383864654	1.9862769159694091	0.25067497889756873	0.44573175959519784	0.49128035689753574	0.2512471270461707	0.4177056153923314	0.2544544159133133	0.25277155485957686	0.31423197232332817	0.3612882442674646	0.4000870487986009	0.4374540686658076	0.5670815848217154	0.5221627403508002	0.3424382342568276	0.7458460559420729	0.3610712598270922	0.27526699740154664	0.6060601335821137	0.2926261849730225	0.31495752231311835	0.5500325925874813	0.28790293146590945	0.28760537814735243	0.5440500044872767	0.28631945199676834	0.27670276236275887	0.5631189519128499	0.08286661579294005	0.47429651334887896	0.564404513051865	-0.04812752837874776	0.35898655672174495	0.7481437664061241	0.11738908688736882	0.32823362391561195	0.6282147339470467	0.193034693024889	0.3292699435382111	0.5745544748224954	0.18315442292399578	0.28530171319228753	0.5475572428841394	0.16445128583317248	0.25748836384478346	0.5723258520250017
133	2.2542372881355934	0.34268098107771283	0.41948197771393314	1.0566623864097364	0.3301386566634143	0.4573625461453923	1.4878748026188071	0.31338976114109984	0.4820657260989917	1.906637673850714	0.32071230351202046	0.3304291417556647	1.9162661404537908	0.37781144358076024	0.345312656041786	1.9179555848017313	0.29080517402307327	0.553269006158917	1.99632496154995	0.15016482060220068	0.44411525206283475	1.0701459926919952	0.13789156347387768	0.48736417133395726	1.512352201676109	0.14601629657477264	0.49623377445761874	1.941705651189287	0.14933870483461628	0.3339834166351323	1.923873031403545	0.1075296908725939	0.3680304093890093	1.9313875730759418	0.1547570570662961	0.5276946447338416	1.9863055181177982	0.2506610786692133	0.4456212221091255	0.4912339104650633	0.2538661102328562	0.42785204459074183	0.2549679430756048	0.24896757137822853	0.32551219869468667	0.3625722656878942	0.40008586941168994	0.4373825110242182	0.56706658304821	0.522169512136423	0.3424030262815601	0.7458650214362325	0.3645606742237346	0.2643388169722671	0.6036426749267362	0.296014138740691	0.30322383383199425	0.5477498178626793	0.2918186479413879	0.2910354726832571	0.5447377796580068	0.28651188838893377	0.27662904974544245	0.5633439705115596	0.08310764787243327	0.47455235691896924	0.5610607661850864	-0.04759212455435409	0.3598953660332797	0.7477238355545134	0.11766178164719888	0.32896883399427057	0.6317664676096691	0.19297038607089023	0.32936385021688325	0.5748139243380131	0.18509118410665312	0.2948920127572978	0.551783056850113	0.16441023282965678	0.2574220050388577	0.5724953699575275
134	2.2711864406779663	0.3426468143701467	0.419693946960835	1.0567687296819348	0.33300472161980094	0.4672096524213688	1.4885488434144332	0.3133714497344253	0.4821367357340567	1.9066144683364277	0.32077277747760563	0.3306991264717268	1.9161794204980453	0.37747772282134456	0.34738090715974695	1.9145346904673064	0.29072756831782604	0.553082243146922	1.9962650750752229	0.15020064039573694	0.44459352018854614	1.0708160749904478	0.1409125810004617	0.4992566497797272	1.518042751399299	0.14602446055109083	0.49624307799546336	1.94183294504769	0.15632739306118854	0.3303753080420925	1.9209066213216783	0.10757004581750969	0.36804032671718034	1.931433799192299	0.15473303572189426	0.5277275168510177	1.986312746999119	0.2506459976194367	0.44558990355229705	0.4912282773887527	0.25121590590921294	0.4179543723725284	0.2543297822046964	0.24892782380846198	0.32540183893767777	0.3626238416259352	0.4001360312055092	0.43730141785908366	0.5671259072251563	0.5221721517560338	0.3424428691981339	0.7458790955680963	0.36809698307415933	0.27416390811614977	0.6090909444470248	0.29451258884982023	0.30645629111194944	0.5483129357713009	0.2880711164411082	0.28898595250807685	0.5415183186695169	0.2868818521413134	0.27738967622628863	0.5636414592776121	0.08072601141340688	0.46423775796433714	0.5593710394208553	-0.04950357605136353	0.3502743701785328	0.7455178203290096	0.11422177102032832	0.32645079391069465	0.6314369464537749	0.19315021351323786	0.3292325847237044	0.5743092578441505	0.18878291631205535	0.2847397240326173	0.5497482030975446	0.16445717810562177	0.25726004243727274	0.5725316735272984
135	2.288135593220339	0.34262931302884614	0.4196225459766218	1.0566702066621085	0.3292502148356217	0.45615001866559524	1.4832329126181436	0.3133661224490093	0.48211073476940747	1.906574769361834	0.32416747763127396	0.3413833035209761	1.9235829328561898	0.37793178364373536	0.3454373955848469	1.9180342254103149	0.29074074510630565	0.553210195474194	1.9962289218952123	0.1501257894473817	0.4443340333290684	1.070330181988545	0.13713337710604673	0.48617407975257854	1.5069449386640217	0.14520270557022544	0.4947865938448656	1.9353535631690415	0.15179177419272558	0.3443536271695174	1.930765683301624	0.1075521105091472	0.3679960108737916	1.931381298220844	0.15474887438480486	0.5274834690193713	1.986206669805802	0.2506659187340567	0.4456641537149125	0.49131953850342686	0.2512226715671349	0.4178038949662502	0.2543900067576055	0.2488833451269975	0.325357388974896	0.36261419231576986	0.4000724947076145	0.43735255267662065	0.5671088415175785	0.5221953394965527	0.34245966065392225	0.7458801168696594	0.36461922859122836	0.2853676442851515	0.6116083702967603	0.2887692754678448	0.3114396246250778	0.5515212318688597	0.2882726935811104	0.2893656519222416	0.5440157246725679	0.28734444445146423	0.27832195436294016	0.5662922599919223	0.08311097224810421	0.47452554825508086	0.5610036091984976	-0.04795145310108484	0.3597531817333922	0.7514780012587193	0.117646702216359	0.32901895318406105	0.6317533457595188	0.19314173666769666	0.32921205588061225	0.5739266866146461	0.18261626228897293	0.2857142718067136	0.5496585310178224	0.16408020090897088	0.25729265642476074	0.5748559095024771
136	2.305084745762712	0.34270521750188926	0.41996628025202887	1.0567884865766324	0.3292140316749876	0.4560833716049356	1.4831257431754918	0.3143221330135748	0.455062275198732	1.8893162058118365	0.3241720980855411	0.34178881047007725	1.9230549547137132	0.3781411844449524	0.34620557108479016	1.9182254477370198	0.28736467679283	0.5405970758051809	1.988456413240488	0.145173874362619	0.4577182505936069	1.0755095586661072	0.13713966998425683	0.48618274439279374	1.507030820536267	0.146017482032311	0.49623132997682035	1.941754128869144	0.15619750163623355	0.32992839198935753	1.9206143668523648	0.10755623263670888	0.36800567545872576	1.9314703276565695	0.15475267144056254	0.5279282788689584	1.9864116872239843	0.25069816502002873	0.44568715043357904	0.49149013632571403	0.2471953189298525	0.41597187130688973	0.2543156163938351	0.25249082583899174	0.31349562305203604	0.3579900882660552	0.3964406017418917	0.45001137991023576	0.5693784046215106	0.5221360917570829	0.3424449622938611	0.7459383864359035	0.36421831539288263	0.2844769204696318	0.607794103291482	0.3009228821242838	0.3176991380896214	0.5456826437715581	0.29107745497107573	0.2961354523026153	0.5432343875587372	0.28682487030982246	0.278526093395608	0.5631651693141797	0.08675646187366362	0.4783499101140648	0.5578246741434265	-0.04983545969049819	0.34951123593234645	0.7494025977329333	0.11776101997837296	0.3283779556619856	0.632014852977149	0.19331756922090404	0.3290635896251253	0.5725501325080995	0.1870003881283343	0.27440647671182405	0.5457336535475128	0.16879324642427274	0.24762259205686152	0.5680595956791641
